<mxfile host="65bd71144e">
    <diagram name="Page-1" id="_lMVKRdNleyuSEj8tpFd">
        <mxGraphModel dx="1639" dy="1185" grid="1" gridSize="10" guides="1" tooltips="1" connect="1" arrows="1" fold="1" page="1" pageScale="1" pageWidth="827" pageHeight="1169" background="#ffffff" math="0" shadow="0">
            <root>
                <mxCell id="0"/>
                <mxCell id="1" parent="0"/>
                <mxCell id="6uw2Na40yDRZ-askNhCR-2" value="Web App (HTML, JS)" style="rounded=0;whiteSpace=wrap;html=1;" parent="1" vertex="1">
                    <mxGeometry x="80" y="400" width="240" height="160" as="geometry"/>
                </mxCell>
                <mxCell id="6uw2Na40yDRZ-askNhCR-21" style="edgeStyle=orthogonalEdgeStyle;rounded=0;orthogonalLoop=1;jettySize=auto;html=1;" parent="1" source="6uw2Na40yDRZ-askNhCR-3" edge="1">
                    <mxGeometry relative="1" as="geometry">
                        <mxPoint x="320" y="500" as="targetPoint"/>
                        <Array as="points">
                            <mxPoint x="320" y="500"/>
                        </Array>
                    </mxGeometry>
                </mxCell>
                <mxCell id="6uw2Na40yDRZ-askNhCR-3" value="Backend (Python)" style="rounded=0;whiteSpace=wrap;html=1;" parent="1" vertex="1">
                    <mxGeometry x="480" y="400" width="240" height="160" as="geometry"/>
                </mxCell>
                <mxCell id="6uw2Na40yDRZ-askNhCR-5" value="Database (sqlite)&lt;div&gt;&lt;br&gt;&lt;/div&gt;&lt;div&gt;WizLight Bulb Model&lt;/div&gt;" style="rounded=0;whiteSpace=wrap;html=1;" parent="1" vertex="1">
                    <mxGeometry x="480" y="80" width="240" height="160" as="geometry"/>
                </mxCell>
                <mxCell id="6uw2Na40yDRZ-askNhCR-7" value="&lt;div&gt;User&lt;/div&gt;" style="shape=umlActor;verticalLabelPosition=bottom;verticalAlign=top;html=1;outlineConnect=0;" parent="1" vertex="1">
                    <mxGeometry x="80" y="720" width="240" height="240" as="geometry"/>
                </mxCell>
                <mxCell id="6uw2Na40yDRZ-askNhCR-11" value="&lt;div&gt;WizBulb&lt;/div&gt;" style="html=1;verticalLabelPosition=bottom;align=center;labelBackgroundColor=#ffffff;verticalAlign=top;strokeWidth=2;strokeColor=#0080F0;shadow=0;dashed=0;shape=mxgraph.ios7.icons.lightbulb;" parent="1" vertex="1">
                    <mxGeometry x="480" y="720" width="240" height="240" as="geometry"/>
                </mxCell>
                <mxCell id="6uw2Na40yDRZ-askNhCR-13" value="" style="shape=flexArrow;endArrow=classic;startArrow=classic;html=1;rounded=0;entryX=0.5;entryY=1;entryDx=0;entryDy=0;exitX=0.5;exitY=0;exitDx=0;exitDy=0;exitPerimeter=0;" parent="1" source="6uw2Na40yDRZ-askNhCR-7" target="6uw2Na40yDRZ-askNhCR-2" edge="1">
                    <mxGeometry width="100" height="100" relative="1" as="geometry">
                        <mxPoint x="150" y="680" as="sourcePoint"/>
                        <mxPoint x="250" y="580" as="targetPoint"/>
                    </mxGeometry>
                </mxCell>
                <mxCell id="6uw2Na40yDRZ-askNhCR-14" value="" style="shape=flexArrow;endArrow=classic;startArrow=classic;html=1;rounded=0;exitX=0.75;exitY=0.1;exitDx=0;exitDy=0;exitPerimeter=0;entryX=0.053;entryY=0.275;entryDx=0;entryDy=0;entryPerimeter=0;fillColor=#fff2cc;strokeColor=#d6b656;" parent="1" source="6uw2Na40yDRZ-askNhCR-7" target="6uw2Na40yDRZ-askNhCR-11" edge="1">
                    <mxGeometry width="100" height="100" relative="1" as="geometry">
                        <mxPoint x="350" y="840" as="sourcePoint"/>
                        <mxPoint x="450" y="740" as="targetPoint"/>
                    </mxGeometry>
                </mxCell>
                <mxCell id="2" value="SIGHT" style="edgeLabel;html=1;align=center;verticalAlign=middle;resizable=0;points=[];" vertex="1" connectable="0" parent="6uw2Na40yDRZ-askNhCR-14">
                    <mxGeometry x="0.056" y="-5" relative="1" as="geometry">
                        <mxPoint as="offset"/>
                    </mxGeometry>
                </mxCell>
                <mxCell id="6uw2Na40yDRZ-askNhCR-15" value="" style="shape=flexArrow;endArrow=classic;startArrow=classic;html=1;rounded=0;entryX=0.5;entryY=1;entryDx=0;entryDy=0;exitX=0.494;exitY=-0.008;exitDx=0;exitDy=0;exitPerimeter=0;" parent="1" source="6uw2Na40yDRZ-askNhCR-11" target="6uw2Na40yDRZ-askNhCR-3" edge="1">
                    <mxGeometry width="100" height="100" relative="1" as="geometry">
                        <mxPoint x="560" y="720" as="sourcePoint"/>
                        <mxPoint x="660" y="620" as="targetPoint"/>
                    </mxGeometry>
                </mxCell>
                <mxCell id="6uw2Na40yDRZ-askNhCR-17" value="" style="shape=flexArrow;endArrow=classic;startArrow=classic;html=1;rounded=0;exitX=0.5;exitY=0;exitDx=0;exitDy=0;entryX=0.5;entryY=1;entryDx=0;entryDy=0;" parent="1" source="6uw2Na40yDRZ-askNhCR-3" target="6uw2Na40yDRZ-askNhCR-5" edge="1">
                    <mxGeometry width="100" height="100" relative="1" as="geometry">
                        <mxPoint x="590" y="350" as="sourcePoint"/>
                        <mxPoint x="690" y="250" as="targetPoint"/>
                    </mxGeometry>
                </mxCell>
                <mxCell id="6uw2Na40yDRZ-askNhCR-19" value="UDP Packets" style="text;html=1;align=center;verticalAlign=middle;whiteSpace=wrap;rounded=0;" parent="1" vertex="1">
                    <mxGeometry x="610" y="624" width="60" height="30" as="geometry"/>
                </mxCell>
                <mxCell id="6uw2Na40yDRZ-askNhCR-20" style="edgeStyle=orthogonalEdgeStyle;rounded=0;orthogonalLoop=1;jettySize=auto;html=1;entryX=-0.013;entryY=0.246;entryDx=0;entryDy=0;entryPerimeter=0;" parent="1" source="6uw2Na40yDRZ-askNhCR-2" target="6uw2Na40yDRZ-askNhCR-3" edge="1">
                    <mxGeometry relative="1" as="geometry">
                        <Array as="points">
                            <mxPoint x="400" y="440"/>
                        </Array>
                    </mxGeometry>
                </mxCell>
                <mxCell id="6uw2Na40yDRZ-askNhCR-22" value="JS/HTML" style="text;html=1;align=center;verticalAlign=middle;whiteSpace=wrap;rounded=0;" parent="1" vertex="1">
                    <mxGeometry x="345" y="411" width="60" height="30" as="geometry"/>
                </mxCell>
                <mxCell id="6uw2Na40yDRZ-askNhCR-23" value="JSON/HTML" style="text;html=1;align=center;verticalAlign=middle;whiteSpace=wrap;rounded=0;" parent="1" vertex="1">
                    <mxGeometry x="360" y="472" width="80" height="30" as="geometry"/>
                </mxCell>
                <mxCell id="6uw2Na40yDRZ-askNhCR-24" value="SQL" style="text;html=1;align=center;verticalAlign=middle;whiteSpace=wrap;rounded=0;" parent="1" vertex="1">
                    <mxGeometry x="600" y="290" width="60" height="40" as="geometry"/>
                </mxCell>
            </root>
        </mxGraphModel>
    </diagram>
</mxfile>
